<svg width="122" height="47" viewBox="0 0 122 47" fill="none" xmlns="http://www.w3.org/2000/svg">
<path d="M0 0.69165V46.0598H20.6705V38.3435H9.98653V0.69165H0Z" fill="#5C0AA3"/>
<path d="M34.6297 0.69165H24.771V46.0598H34.6297V0.69165Z" fill="#5C0AA3"/>
<path d="M41.1621 0.69165H53.8762L63.0996 30.4363H63.483L63.4173 0.69165H72.4873V46.0598H59.8572L50.6338 16.5673H50.2504L50.3161 46.0598H41.1621V0.69165Z" fill="#5C0AA3"/>
<path d="M106.544 33.3831C105.842 37.1475 106.799 40.4113 109.216 40.4113C111.126 40.4113 112.079 38.6533 112.079 36.3946C112.079 33.0048 109.852 30.3715 106.547 28.1741C101.523 24.9103 96.5607 20.1408 96.5607 13.1774C96.557 4.83077 102.282 0 108.961 0C115.259 0 120.601 4.2688 121.365 12.864H111.44C111.82 9.53905 110.933 6.7148 109.023 6.7148C107.431 6.7148 106.35 8.59883 106.35 11.1709C106.35 13.6169 108.066 16.0017 111.758 18.2604C117.417 21.7114 121.996 26.4197 121.996 33.8226C121.996 41.9171 116.589 47 109.275 47C103.867 47 96.7433 43.7363 96.1079 33.3831H106.544Z" fill="#5C0AA3"/>
<path d="M83.7771 0.626831H94.6546L84.4161 22.1509L95.7354 46.0598H84.3504L73.9805 22.3671L83.7771 0.626831Z" fill="#FA7F16"/>
</svg>
