<svg width="27" height="23" viewBox="0 0 27 23" fill="none" xmlns="http://www.w3.org/2000/svg">
<path fill-rule="evenodd" clip-rule="evenodd" d="M26.8984 3.30989C25.9349 3.75393 24.8984 4.05489 23.8122 4.18934C24.9215 3.49738 25.773 2.40332 26.175 1.09772C25.1368 1.73849 23.9865 2.2035 22.7633 2.45389C21.7826 1.36784 20.3862 0.689453 18.8405 0.689453C15.8735 0.689453 13.4674 3.1921 13.4674 6.27755C13.4674 6.71542 13.5154 7.14219 13.6073 7.55169C9.14197 7.31857 5.183 5.09345 2.53321 1.71197C2.07013 2.53714 1.8051 3.49738 1.8051 4.52175C1.8051 6.4601 2.75438 8.17149 4.19519 9.17366C3.3147 9.14406 2.48578 8.89306 1.76182 8.47369C1.76123 8.49712 1.76122 8.52117 1.76122 8.54461C1.76122 11.2526 3.61412 13.5104 6.0718 14.0235C5.62118 14.1518 5.14624 14.2203 4.65648 14.2203C4.30962 14.2203 3.97343 14.1857 3.64554 14.1204C4.32919 16.3399 6.31312 17.9557 8.66408 18.0008C6.82482 19.5006 4.50884 20.3936 1.99068 20.3936C1.55844 20.3936 1.12975 20.3671 0.709961 20.3153C3.08701 21.9009 5.91171 22.8266 8.94513 22.8266C18.828 22.8266 24.2332 14.3116 24.2332 6.9251C24.2332 6.68335 24.2272 6.44221 24.2171 6.20231C25.2672 5.41476 26.178 4.43047 26.8984 3.30989Z" fill="#F4F4F4"/>
</svg>
